<svg width="120" height="60" viewBox="0 0 120 60" fill="none" xmlns="http://www.w3.org/2000/svg">
<rect x="0.25" y="0.25" width="119.5" height="59.5" rx="4.75" fill="#0D0F11" stroke="#576776" stroke-width="0.5"/>
<path d="M9.744 10.812L8.328 13.542V15H7.488V13.542L6.066 10.812H7.014L7.914 12.726L8.808 10.812H9.744ZM11.7045 15.054C11.3845 15.054 11.0965 14.984 10.8405 14.844C10.5845 14.7 10.3825 14.498 10.2345 14.238C10.0905 13.978 10.0185 13.678 10.0185 13.338C10.0185 12.998 10.0925 12.698 10.2405 12.438C10.3925 12.178 10.5985 11.978 10.8585 11.838C11.1185 11.694 11.4085 11.622 11.7285 11.622C12.0485 11.622 12.3385 11.694 12.5985 11.838C12.8585 11.978 13.0625 12.178 13.2105 12.438C13.3625 12.698 13.4385 12.998 13.4385 13.338C13.4385 13.678 13.3605 13.978 13.2045 14.238C13.0525 14.498 12.8445 14.7 12.5805 14.844C12.3205 14.984 12.0285 15.054 11.7045 15.054ZM11.7045 14.322C11.8565 14.322 11.9985 14.286 12.1305 14.214C12.2665 14.138 12.3745 14.026 12.4545 13.878C12.5345 13.73 12.5745 13.55 12.5745 13.338C12.5745 13.022 12.4905 12.78 12.3225 12.612C12.1585 12.44 11.9565 12.354 11.7165 12.354C11.4765 12.354 11.2745 12.44 11.1105 12.612C10.9505 12.78 10.8705 13.022 10.8705 13.338C10.8705 13.654 10.9485 13.898 11.1045 14.07C11.2645 14.238 11.4645 14.322 11.7045 14.322ZM17.1926 11.676V15H16.3466V14.58C16.2386 14.724 16.0966 14.838 15.9206 14.922C15.7486 15.002 15.5606 15.042 15.3566 15.042C15.0966 15.042 14.8666 14.988 14.6666 14.88C14.4666 14.768 14.3086 14.606 14.1926 14.394C14.0806 14.178 14.0246 13.922 14.0246 13.626V11.676H14.8646V13.506C14.8646 13.77 14.9306 13.974 15.0626 14.118C15.1946 14.258 15.3746 14.328 15.6026 14.328C15.8346 14.328 16.0166 14.258 16.1486 14.118C16.2806 13.974 16.3466 13.77 16.3466 13.506V11.676H17.1926ZM18.8614 12.192C18.9694 12.016 19.1094 11.878 19.2814 11.778C19.4574 11.678 19.6574 11.628 19.8814 11.628V12.51H19.6594C19.3954 12.51 19.1954 12.572 19.0594 12.696C18.9274 12.82 18.8614 13.036 18.8614 13.344V15H18.0214V11.676H18.8614V12.192ZM23.3409 10.812C23.7809 10.812 24.1669 10.898 24.4989 11.07C24.8349 11.242 25.0929 11.488 25.2729 11.808C25.4569 12.124 25.5489 12.492 25.5489 12.912C25.5489 13.332 25.4569 13.7 25.2729 14.016C25.0929 14.328 24.8349 14.57 24.4989 14.742C24.1669 14.914 23.7809 15 23.3409 15H21.8769V10.812H23.3409ZM23.3109 14.286C23.7509 14.286 24.0909 14.166 24.3309 13.926C24.5709 13.686 24.6909 13.348 24.6909 12.912C24.6909 12.476 24.5709 12.136 24.3309 11.892C24.0909 11.644 23.7509 11.52 23.3109 11.52H22.7169V14.286H23.3109ZM25.9617 13.326C25.9617 12.99 26.0277 12.692 26.1597 12.432C26.2957 12.172 26.4777 11.972 26.7057 11.832C26.9377 11.692 27.1957 11.622 27.4797 11.622C27.7277 11.622 27.9437 11.672 28.1277 11.772C28.3157 11.872 28.4657 11.998 28.5777 12.15V11.676H29.4237V15H28.5777V14.514C28.4697 14.67 28.3197 14.8 28.1277 14.904C27.9397 15.004 27.7217 15.054 27.4737 15.054C27.1937 15.054 26.9377 14.982 26.7057 14.838C26.4777 14.694 26.2957 14.492 26.1597 14.232C26.0277 13.968 25.9617 13.666 25.9617 13.326ZM28.5777 13.338C28.5777 13.134 28.5377 12.96 28.4577 12.816C28.3777 12.668 28.2697 12.556 28.1337 12.48C27.9977 12.4 27.8517 12.36 27.6957 12.36C27.5397 12.36 27.3957 12.398 27.2637 12.474C27.1317 12.55 27.0237 12.662 26.9397 12.81C26.8597 12.954 26.8197 13.126 26.8197 13.326C26.8197 13.526 26.8597 13.702 26.9397 13.854C27.0237 14.002 27.1317 14.116 27.2637 14.196C27.3997 14.276 27.5437 14.316 27.6957 14.316C27.8517 14.316 27.9977 14.278 28.1337 14.202C28.2697 14.122 28.3777 14.01 28.4577 13.866C28.5377 13.718 28.5777 13.542 28.5777 13.338ZM31.5161 15.054C31.2441 15.054 31.0001 15.006 30.7841 14.91C30.5681 14.81 30.3961 14.676 30.2681 14.508C30.1441 14.34 30.0761 14.154 30.0641 13.95H30.9101C30.9261 14.078 30.9881 14.184 31.0961 14.268C31.2081 14.352 31.3461 14.394 31.5101 14.394C31.6701 14.394 31.7941 14.362 31.8821 14.298C31.9741 14.234 32.0201 14.152 32.0201 14.052C32.0201 13.944 31.9641 13.864 31.8521 13.812C31.7441 13.756 31.5701 13.696 31.3301 13.632C31.0821 13.572 30.8781 13.51 30.7181 13.446C30.5621 13.382 30.4261 13.284 30.3101 13.152C30.1981 13.02 30.1421 12.842 30.1421 12.618C30.1421 12.434 30.1941 12.266 30.2981 12.114C30.4061 11.962 30.5581 11.842 30.7541 11.754C30.9541 11.666 31.1881 11.622 31.4561 11.622C31.8521 11.622 32.1681 11.722 32.4041 11.922C32.6401 12.118 32.7701 12.384 32.7941 12.72H31.9901C31.9781 12.588 31.9221 12.484 31.8221 12.408C31.7261 12.328 31.5961 12.288 31.4321 12.288C31.2801 12.288 31.1621 12.316 31.0781 12.372C30.9981 12.428 30.9581 12.506 30.9581 12.606C30.9581 12.718 31.0141 12.804 31.1261 12.864C31.2381 12.92 31.4121 12.978 31.6481 13.038C31.8881 13.098 32.0861 13.16 32.2421 13.224C32.3981 13.288 32.5321 13.388 32.6441 13.524C32.7601 13.656 32.8201 13.832 32.8241 14.052C32.8241 14.244 32.7701 14.416 32.6621 14.568C32.5581 14.72 32.4061 14.84 32.2061 14.928C32.0101 15.012 31.7801 15.054 31.5161 15.054ZM35.3856 11.628C35.6376 11.628 35.8616 11.684 36.0576 11.796C36.2536 11.904 36.4056 12.066 36.5136 12.282C36.6256 12.494 36.6816 12.75 36.6816 13.05V15H35.8416V13.164C35.8416 12.9 35.7756 12.698 35.6436 12.558C35.5116 12.414 35.3316 12.342 35.1036 12.342C34.8716 12.342 34.6876 12.414 34.5516 12.558C34.4196 12.698 34.3536 12.9 34.3536 13.164V15H33.5136V10.56H34.3536V12.09C34.4616 11.946 34.6056 11.834 34.7856 11.754C34.9656 11.67 35.1656 11.628 35.3856 11.628ZM38.3204 12.162C38.4284 12.002 38.5764 11.872 38.7644 11.772C38.9564 11.672 39.1744 11.622 39.4184 11.622C39.7024 11.622 39.9584 11.692 40.1864 11.832C40.4184 11.972 40.6004 12.172 40.7324 12.432C40.8684 12.688 40.9364 12.986 40.9364 13.326C40.9364 13.666 40.8684 13.968 40.7324 14.232C40.6004 14.492 40.4184 14.694 40.1864 14.838C39.9584 14.982 39.7024 15.054 39.4184 15.054C39.1704 15.054 38.9524 15.006 38.7644 14.91C38.5804 14.81 38.4324 14.682 38.3204 14.526V15H37.4804V10.56H38.3204V12.162ZM40.0784 13.326C40.0784 13.126 40.0364 12.954 39.9524 12.81C39.8724 12.662 39.7644 12.55 39.6284 12.474C39.4964 12.398 39.3524 12.36 39.1964 12.36C39.0444 12.36 38.9004 12.4 38.7644 12.48C38.6324 12.556 38.5244 12.668 38.4404 12.816C38.3604 12.964 38.3204 13.138 38.3204 13.338C38.3204 13.538 38.3604 13.712 38.4404 13.86C38.5244 14.008 38.6324 14.122 38.7644 14.202C38.9004 14.278 39.0444 14.316 39.1964 14.316C39.3524 14.316 39.4964 14.276 39.6284 14.196C39.7644 14.116 39.8724 14.002 39.9524 13.854C40.0364 13.706 40.0784 13.53 40.0784 13.326ZM43.0228 15.054C42.7028 15.054 42.4148 14.984 42.1588 14.844C41.9028 14.7 41.7008 14.498 41.5528 14.238C41.4088 13.978 41.3368 13.678 41.3368 13.338C41.3368 12.998 41.4108 12.698 41.5588 12.438C41.7108 12.178 41.9168 11.978 42.1768 11.838C42.4368 11.694 42.7268 11.622 43.0468 11.622C43.3668 11.622 43.6568 11.694 43.9168 11.838C44.1768 11.978 44.3808 12.178 44.5288 12.438C44.6808 12.698 44.7568 12.998 44.7568 13.338C44.7568 13.678 44.6788 13.978 44.5228 14.238C44.3708 14.498 44.1628 14.7 43.8988 14.844C43.6388 14.984 43.3468 15.054 43.0228 15.054ZM43.0228 14.322C43.1748 14.322 43.3168 14.286 43.4488 14.214C43.5848 14.138 43.6928 14.026 43.7728 13.878C43.8528 13.73 43.8928 13.55 43.8928 13.338C43.8928 13.022 43.8088 12.78 43.6408 12.612C43.4768 12.44 43.2748 12.354 43.0348 12.354C42.7948 12.354 42.5928 12.44 42.4288 12.612C42.2688 12.78 42.1888 13.022 42.1888 13.338C42.1888 13.654 42.2668 13.898 42.4228 14.07C42.5828 14.238 42.7828 14.322 43.0228 14.322ZM45.157 13.326C45.157 12.99 45.223 12.692 45.355 12.432C45.491 12.172 45.673 11.972 45.901 11.832C46.133 11.692 46.391 11.622 46.675 11.622C46.923 11.622 47.139 11.672 47.323 11.772C47.511 11.872 47.661 11.998 47.773 12.15V11.676H48.619V15H47.773V14.514C47.665 14.67 47.515 14.8 47.323 14.904C47.135 15.004 46.917 15.054 46.669 15.054C46.389 15.054 46.133 14.982 45.901 14.838C45.673 14.694 45.491 14.492 45.355 14.232C45.223 13.968 45.157 13.666 45.157 13.326ZM47.773 13.338C47.773 13.134 47.733 12.96 47.653 12.816C47.573 12.668 47.465 12.556 47.329 12.48C47.193 12.4 47.047 12.36 46.891 12.36C46.735 12.36 46.591 12.398 46.459 12.474C46.327 12.55 46.219 12.662 46.135 12.81C46.055 12.954 46.015 13.126 46.015 13.326C46.015 13.526 46.055 13.702 46.135 13.854C46.219 14.002 46.327 14.116 46.459 14.196C46.595 14.276 46.739 14.316 46.891 14.316C47.047 14.316 47.193 14.278 47.329 14.202C47.465 14.122 47.573 14.01 47.653 13.866C47.733 13.718 47.773 13.542 47.773 13.338ZM50.2794 12.192C50.3874 12.016 50.5274 11.878 50.6994 11.778C50.8754 11.678 51.0754 11.628 51.2994 11.628V12.51H51.0774C50.8134 12.51 50.6134 12.572 50.4774 12.696C50.3454 12.82 50.2794 13.036 50.2794 13.344V15H49.4394V11.676H50.2794V12.192ZM51.6492 13.326C51.6492 12.99 51.7152 12.692 51.8472 12.432C51.9832 12.172 52.1672 11.972 52.3992 11.832C52.6312 11.692 52.8892 11.622 53.1732 11.622C53.3892 11.622 53.5952 11.67 53.7912 11.766C53.9872 11.858 54.1432 11.982 54.2592 12.138V10.56H55.1112V15H54.2592V14.508C54.1552 14.672 54.0092 14.804 53.8212 14.904C53.6332 15.004 53.4152 15.054 53.1672 15.054C52.8872 15.054 52.6312 14.982 52.3992 14.838C52.1672 14.694 51.9832 14.492 51.8472 14.232C51.7152 13.968 51.6492 13.666 51.6492 13.326ZM54.2652 13.338C54.2652 13.134 54.2252 12.96 54.1452 12.816C54.0652 12.668 53.9572 12.556 53.8212 12.48C53.6852 12.4 53.5392 12.36 53.3832 12.36C53.2272 12.36 53.0832 12.398 52.9512 12.474C52.8192 12.55 52.7112 12.662 52.6272 12.81C52.5472 12.954 52.5072 13.126 52.5072 13.326C52.5072 13.526 52.5472 13.702 52.6272 13.854C52.7112 14.002 52.8192 14.116 52.9512 14.196C53.0872 14.276 53.2312 14.316 53.3832 14.316C53.5392 14.316 53.6852 14.278 53.8212 14.202C53.9572 14.122 54.0652 14.01 54.1452 13.866C54.2252 13.718 54.2652 13.542 54.2652 13.338Z" fill="white"/>
<rect x="6" y="22" width="34" height="10" rx="2" fill="#191D23"/>
<rect x="43" y="22" width="34" height="10" rx="2" fill="#191D23"/>
<rect x="80" y="22" width="34" height="10" rx="2" fill="#191D23"/>
<rect x="6" y="34" width="108" height="5" rx="1" fill="#191D23"/>
<rect x="6" y="41" width="35" height="5" rx="1" fill="#191D23"/>
<rect x="6" y="48" width="60" height="5" rx="1" fill="#191D23"/>
</svg>
