<svg width="40" height="23" viewBox="0 0 40 23" fill="none" xmlns="http://www.w3.org/2000/svg">
<path d="M8.27586 15.7378C7.07625 15.7378 6.10037 16.7137 6.10037 17.9133C6.10037 19.1129 7.07625 20.0888 8.27586 20.0888C9.47546 20.0888 10.4513 19.1128 10.4513 17.9133C10.4513 16.7138 9.47546 15.7378 8.27586 15.7378ZM8.27586 18.7855C7.79487 18.7855 7.40363 18.3942 7.40363 17.9133C7.40363 17.4324 7.79487 17.041 8.27586 17.041C8.75684 17.041 9.14808 17.4323 9.14808 17.9133C9.14808 18.3943 8.75684 18.7855 8.27586 18.7855Z" fill="#7B57E0"/>
<path d="M31.0186 15.7378C29.8189 15.7378 28.843 16.7137 28.843 17.9133C28.843 19.1129 29.8189 20.0888 31.0186 20.0888C32.2181 20.0888 33.194 19.1128 33.194 17.9133C33.194 16.7138 32.2181 15.7378 31.0186 15.7378ZM31.0186 18.7855C30.5376 18.7855 30.1462 18.3942 30.1462 17.9133C30.1462 17.4324 30.5376 17.041 31.0186 17.041C31.4995 17.041 31.8907 17.4323 31.8907 17.9133C31.8907 18.3943 31.4995 18.7855 31.0186 18.7855Z" fill="#7B57E0"/>
<path d="M35.5552 8.20597L29.7412 7.54174L26.6382 2.49762C25.6908 0.95734 23.9787 0.000488281 22.1703 0.000488281H11.6143C8.57986 0.000488281 5.89802 2.04382 5.09252 4.96963L5.01015 5.26895C4.60988 6.72278 3.45971 7.87998 2.00841 8.2892C0.825917 8.62266 0 9.71358 0 10.9422V18.1546C0 18.5145 0.291756 18.8062 0.651628 18.8062H4.00161C4.41491 20.787 6.17422 22.2797 8.27586 22.2797C10.3775 22.2797 12.1368 20.787 12.5501 18.8062H26.7443C27.1576 20.787 28.9169 22.2797 31.0186 22.2797C33.1202 22.2797 34.8795 20.787 35.2928 18.8062H38.8096C39.1409 18.8062 39.4195 18.5577 39.4571 18.2284L39.9674 13.7554C40.2805 11.0096 38.3013 8.52014 35.5552 8.20597ZM1.30326 16.7112H4.07911C4.00586 16.9665 3.95486 17.231 3.92932 17.503H1.30326V16.7112ZM8.27586 20.9764C6.58683 20.9764 5.21277 19.6023 5.21277 17.9133C5.21277 16.2243 6.58683 14.8501 8.27586 14.8501C9.96488 14.8501 11.3389 16.2243 11.3389 17.9133C11.3389 19.6023 9.96488 20.9764 8.27586 20.9764ZM31.0186 20.9764C29.3295 20.9764 27.9555 19.6023 27.9555 17.9133C27.9555 16.2243 29.3295 14.8501 31.0186 14.8501C32.7076 14.8501 34.0816 16.2243 34.0816 17.9133C34.0816 19.6023 32.7076 20.9764 31.0186 20.9764ZM31.0186 13.5469C29.5427 13.5469 28.2365 14.2837 27.4457 15.4079H15.8498C15.4899 15.4079 15.1981 15.6997 15.1981 16.0596C15.1981 16.4194 15.4899 16.7112 15.8498 16.7112H26.8218C26.7486 16.9665 26.6976 17.231 26.672 17.503H12.6224C12.4148 15.2871 10.5451 13.5469 8.27586 13.5469C6.79996 13.5469 5.49375 14.2837 4.70302 15.4079H1.30326V10.9422C1.30326 10.2945 1.73872 9.71931 2.36211 9.54354C4.24992 9.01129 5.74597 7.50595 6.26667 5.61483L6.34903 5.31552C6.99927 2.9535 9.1645 1.30375 11.6143 1.30375H22.1703C23.5294 1.30375 24.8161 2.02288 25.5281 3.18044L28.7972 8.4946C28.9021 8.66506 29.0795 8.77784 29.2783 8.8006L35.4071 9.5008C36.7975 9.65988 37.9218 10.5725 38.4194 11.7838H36.3852C36.0253 11.7838 35.7336 12.0755 35.7336 12.4354C35.7336 12.7953 36.0253 13.087 36.3852 13.087H38.6944C38.6989 13.2586 38.6924 13.4324 38.6724 13.6077L38.467 15.4079H34.5913C33.8007 14.2837 32.4944 13.5469 31.0186 13.5469ZM35.365 17.503C35.3396 17.231 35.2885 16.9665 35.2152 16.7112H38.3184L38.228 17.503H35.365Z" fill="#7B57E0"/>
<path d="M22.2045 9.83936H20.8352C20.4753 9.83936 20.1835 10.1311 20.1835 10.491C20.1835 10.8509 20.4753 11.1426 20.8352 11.1426H22.2045C22.5643 11.1426 22.8561 10.8509 22.8561 10.491C22.8561 10.1311 22.5644 9.83936 22.2045 9.83936Z" fill="#7B57E0"/>
<path d="M13.4536 10.491C13.4536 10.1311 13.1618 9.83936 12.802 9.83936H11.4327C11.0728 9.83936 10.7811 10.1311 10.7811 10.491C10.7811 10.8509 11.0728 11.1426 11.4327 11.1426H12.802C13.1618 11.1426 13.4536 10.8509 13.4536 10.491Z" fill="#7B57E0"/>
<path d="M14.2608 15.8105C14.1466 15.54 13.8561 15.3701 13.5635 15.4155C13.2986 15.4567 13.0837 15.656 13.0237 15.9174C12.8937 16.483 13.5494 16.9221 14.0263 16.5976C14.2787 16.4259 14.3772 16.0924 14.2608 15.8105C14.2773 15.8505 14.2443 15.7714 14.2608 15.8105Z" fill="#7B57E0"/>
<path d="M24.85 3.59841C24.2825 2.67423 23.2558 2.1001 22.1704 2.1001H11.614C9.52125 2.1001 7.67201 3.50909 7.11683 5.52706L7.03489 5.82576C6.82046 6.60389 6.49031 7.94051 6.47632 7.99707C6.42827 8.19152 6.47241 8.39726 6.59587 8.55504C6.71942 8.71274 6.90856 8.80492 7.10892 8.80492H26.8871C27.1232 8.80492 27.3409 8.67729 27.456 8.4712C27.5712 8.26511 27.5659 8.01289 27.4422 7.81184L24.85 3.59841ZM17.3205 3.40327V7.50149H11.3208V3.41639C11.4177 3.40787 11.5154 3.40327 11.614 3.40327H17.3205ZM8.29149 6.17112L8.37351 5.87216C8.622 4.969 9.23062 4.23535 10.0175 3.80893V7.5014H7.94396C8.05387 7.06768 8.1881 6.54655 8.29149 6.17112ZM18.6237 7.50149V3.40327H22.1704C22.806 3.40327 23.4072 3.73933 23.7397 4.28079L25.7213 7.50149H18.6237Z" fill="#7B57E0"/>
</svg>
