<svg width="25" height="25" viewBox="0 0 25 25" fill="none" xmlns="http://www.w3.org/2000/svg">
<path d="M7.10016 4.80762C5.4433 4.80762 4.10016 6.15076 4.10016 7.80762V17.0801C4.10016 18.7369 5.4433 20.0801 7.10016 20.0801H17.9C19.5568 20.0801 20.9 18.7369 20.9 17.0801V7.80762C20.9 6.15076 19.5568 4.80762 17.9 4.80762H7.10016ZM11.8746 6.33496C12.9789 6.33512 13.8745 7.23058 13.8746 8.33496V16.5537C13.8744 17.658 12.9789 18.5536 11.8746 18.5537H7.77985C6.67541 18.5537 5.78006 17.6581 5.77985 16.5537V8.33496C5.77995 7.23048 6.67534 6.33496 7.77985 6.33496H11.8746Z" fill="#7B57E0"/>
</svg>
