<svg width="29" height="33" viewBox="0 0 29 33" fill="none" xmlns="http://www.w3.org/2000/svg">
<g clip-path="url(#clip0_10_1762)">
<path d="M22.8351 21.0954V11.3087L25.5977 9.71411L28.1552 8.23796C28.2693 8.17212 28.3109 8.02642 28.2369 7.91748C28.0154 7.5915 27.7207 7.32801 27.3686 7.11675L21.63 3.69113L15.8404 0.357058C15.0124 -0.119019 13.9996 -0.119019 13.1732 0.357058L7.38203 3.6896L1.64346 7.11675C0.823024 7.60656 0.316636 8.49615 0.309123 9.46204L0.256531 16.2217L0.309123 22.9814C0.316636 23.9473 0.823024 24.8369 1.64346 25.3267L7.38203 28.7523L13.1732 32.0849C14.0011 32.561 15.0139 32.561 15.8404 32.0849L21.6315 28.7523L27.3701 25.3267C28.1905 24.8369 28.6969 23.9473 28.7044 22.9814L28.7404 18.0876C28.7418 17.9001 28.539 17.782 28.3766 17.8758L25.7893 19.3692L22.8351 21.0744V21.0954Z" fill="black"/>
</g>
<rect width="9.65428" height="9.76571" transform="matrix(0.862668 0.50577 -2.16947e-08 1 6.20288 11.2915)" fill="#421C83"/>
<rect width="9.65428" height="9.76571" transform="matrix(0.862668 -0.50577 2.16947e-08 1 14.5349 16.1743)" fill="#5B25C0"/>
<rect width="9.65428" height="9.65428" transform="matrix(0.862668 0.50577 -0.862668 0.505771 14.5349 6.40869)" fill="#7B57E0"/>
<defs>
<clipPath id="clip0_10_1762">
<rect width="28.487" height="32.4435" fill="white" transform="translate(0.256531)"/>
</clipPath>
</defs>
</svg>
