<svg width="24" height="24" viewBox="0 0 24 24" fill="none" xmlns="http://www.w3.org/2000/svg">
<path d="M17.3998 4.36426C19.0567 4.36426 20.3998 5.7074 20.3998 7.36426V16.6367C20.3998 18.2936 19.0567 19.6367 17.3998 19.6367H6.60004C4.94318 19.6367 3.60004 18.2936 3.60004 16.6367V7.36426C3.60004 5.7074 4.94318 4.36426 6.60004 4.36426H17.3998ZM12.6254 5.8916C11.5211 5.89176 10.6255 6.78722 10.6254 7.8916V16.1104C10.6256 17.2146 11.5211 18.1102 12.6254 18.1104H16.7202C17.8246 18.1104 18.7199 17.2147 18.7202 16.1104V7.8916C18.72 6.78712 17.8247 5.8916 16.7202 5.8916H12.6254Z" fill="#7B57E0"/>
</svg>
