<svg width="18" height="19" viewBox="0 0 18 19" fill="none" xmlns="http://www.w3.org/2000/svg">
<path d="M5.25 13.1309C6.38909 13.1309 7.3125 14.0543 7.3125 15.1934C7.3125 16.3324 6.38909 17.2559 5.25 17.2559C4.30596 17.2559 3.51052 16.6215 3.26562 15.7559H2.25C1.93934 15.7559 1.6875 15.504 1.6875 15.1934C1.6875 14.8827 1.93934 14.6309 2.25 14.6309H3.26562C3.51052 13.7652 4.30596 13.1309 5.25 13.1309ZM15.75 14.6309C16.0607 14.6309 16.3125 14.8827 16.3125 15.1934C16.3125 15.504 16.0607 15.7559 15.75 15.7559H9C8.68934 15.7559 8.4375 15.504 8.4375 15.1934C8.4375 14.8827 8.68934 14.6309 9 14.6309H15.75ZM12.75 7.88086C13.6941 7.88086 14.4905 8.51517 14.7354 9.38086H15.75C16.0607 9.38086 16.3125 9.6327 16.3125 9.94336C16.3125 10.254 16.0607 10.5059 15.75 10.5059H14.7354C14.4905 11.3715 13.6941 12.0059 12.75 12.0059C11.6109 12.0059 10.6875 11.0824 10.6875 9.94336C10.6875 8.80427 11.6109 7.88086 12.75 7.88086ZM9 9.38086C9.31066 9.38086 9.5625 9.6327 9.5625 9.94336C9.5625 10.254 9.31066 10.5059 9 10.5059H2.25C1.93934 10.5059 1.6875 10.254 1.6875 9.94336C1.6875 9.6327 1.93934 9.38086 2.25 9.38086H9ZM9 2.63086C9.94404 2.63086 10.7395 3.26524 10.9844 4.13086H15.75C16.0607 4.13086 16.3125 4.3827 16.3125 4.69336C16.3125 5.00402 16.0607 5.25586 15.75 5.25586H10.9844C10.7395 6.12148 9.94404 6.75586 9 6.75586C8.05596 6.75586 7.26052 6.12148 7.01562 5.25586H2.25C1.93934 5.25586 1.6875 5.00402 1.6875 4.69336C1.6875 4.3827 1.93934 4.13086 2.25 4.13086H7.01562C7.26052 3.26524 8.05596 2.63086 9 2.63086Z" fill="black"/>
</svg>
