<svg width="23" height="25" viewBox="0 0 23 25" fill="none" xmlns="http://www.w3.org/2000/svg">
<path d="M13.7547 12.9754C13.7547 11.8987 12.7572 11.0259 11.5267 11.0259C10.2962 11.0259 9.29871 11.8987 9.29871 12.9754C9.29871 14.0521 10.2962 14.9249 11.5267 14.9249C12.7572 14.9249 13.7547 15.7977 13.7547 16.8744C13.7547 17.9511 12.7572 18.8239 11.5267 18.8239C10.2962 18.8239 9.29871 17.9511 9.29871 16.8744" stroke="#7B57E0" stroke-width="1.5" stroke-linecap="round"/>
<path d="M11.5267 9.35498V11.026" stroke="#7B57E0" stroke-width="1.5" stroke-linecap="round" stroke-linejoin="round"/>
<path d="M11.5267 18.8242V20.4952" stroke="#7B57E0" stroke-width="1.5" stroke-linecap="round" stroke-linejoin="round"/>
<path d="M4.58917 10.6725C5.40586 8.2224 7.69869 6.56982 10.2813 6.56982H12.7722C15.3548 6.56982 17.6476 8.2224 18.4643 10.6725L20.0343 15.3825C21.3293 19.2676 18.4375 23.2798 14.3422 23.2798H8.71127C4.61592 23.2798 1.72411 19.2676 3.01917 15.3825L4.58917 10.6725Z" stroke="#7B57E0" stroke-width="1.5" stroke-linejoin="round"/>
<path d="M13.8504 6.57L9.20306 6.57L7.64225 4.77975C6.11224 3.02484 7.89716 0.401755 10.131 1.12237L11.1645 1.45578C11.3998 1.53169 11.6537 1.53169 11.889 1.45578L12.9225 1.12237C15.1563 0.401756 16.9412 3.02484 15.4112 4.77976L13.8504 6.57Z" stroke="#7B57E0" stroke-width="1.5" stroke-linejoin="round"/>
</svg>
