<svg width="60" height="61" viewBox="0 0 60 61" fill="none" xmlns="http://www.w3.org/2000/svg">
<rect y="0.279785" width="60" height="60" rx="30" fill="#DCFCE7"/>
<path d="M21.6667 40.2796C21.6667 38.4387 23.1591 36.9463 25 36.9463C26.841 36.9463 28.3334 38.4387 28.3334 40.2796V46.9463H21.6667V40.2796Z" stroke="#16A34A" stroke-width="2" stroke-linejoin="round"/>
<path d="M46.6666 24.0299V20.2799C46.6666 16.598 43.6819 13.6133 40 13.6133H20C16.3181 13.6133 13.3333 16.598 13.3333 20.2799V24.0299C13.3333 27.4817 15.8206 30.2799 18.8889 30.2799C21.9571 30.2799 24.4444 27.4817 24.4444 24.0299C24.4444 27.4817 26.9317 30.2799 30 30.2799C33.0682 30.2799 35.5555 27.4817 35.5555 24.0299C35.5555 27.4817 38.0428 30.2799 41.1111 30.2799C44.1793 30.2799 46.6666 27.4817 46.6666 24.0299Z" stroke="#16A34A" stroke-width="2" stroke-linejoin="round"/>
<path d="M33.3333 35.2799C33.3333 34.3595 34.0795 33.6133 35 33.6133H38.3333C39.2538 33.6133 40 34.3595 40 35.2799V36.9466C40 37.8671 39.2538 38.6133 38.3333 38.6133H35C34.0795 38.6133 33.3333 37.8671 33.3333 36.9466V35.2799Z" stroke="#16A34A" stroke-width="2" stroke-linejoin="round"/>
<path d="M45 28.6133V40.2799C45 43.9618 42.0152 46.9466 38.3333 46.9466H21.6667C17.9848 46.9466 15 43.9618 15 40.2799V28.6133" stroke="#16A34A" stroke-width="2" stroke-linejoin="round"/>
</svg>
