<svg width="230" height="41" viewBox="0 0 230 41" fill="none" xmlns="http://www.w3.org/2000/svg">
<g clip-path="url(#clip0_7_157)">
<path d="M28.5334 26.659V14.2912L32.0246 12.2761L35.2565 10.4106C35.4007 10.3274 35.4534 10.1433 35.3598 10.0056C35.0799 9.59365 34.7075 9.26067 34.2625 8.99369L27.0104 4.66461L19.6938 0.451227C18.6475 -0.150409 17.3677 -0.150409 16.3232 0.451227L9.00475 4.66268L1.75272 8.99369C0.715898 9.61268 0.0759574 10.7369 0.0664627 11.9575L0 20.5L0.0664627 29.0424C0.0759574 30.2631 0.715898 31.3873 1.75272 32.0063L9.00475 36.3354L16.3232 40.5468C17.3696 41.1485 18.6494 41.1485 19.6938 40.5468L27.0123 36.3354L34.2644 32.0063C35.3012 31.3873 35.9411 30.2631 35.9506 29.0424L35.9961 22.858C35.9978 22.6211 35.7415 22.4718 35.5363 22.5903L32.2667 24.4775L28.5334 26.6324V26.659Z" fill="black"/>
</g>
<rect width="12.2005" height="12.3413" transform="matrix(0.862668 0.50577 -2.16947e-08 1 7.51459 14.2695)" fill="#5B25C0"/>
<rect width="12.2005" height="12.3413" transform="matrix(0.862668 -0.50577 2.16947e-08 1 18.0441 20.4402)" fill="#421C83"/>
<rect width="12.2005" height="12.2005" transform="matrix(0.862668 0.50577 -0.862668 0.505771 18.0441 8.09888)" fill="#7B57E0"/>
<path d="M67.4824 31.5H53.7422C53.3906 31.5 53.0098 31.4609 52.5996 31.3828C52.1992 31.2949 51.7988 31.1631 51.3984 30.9873C51.0078 30.8115 50.6318 30.5869 50.2705 30.3135C49.9092 30.0303 49.5869 29.6934 49.3037 29.3027C49.0303 28.9023 48.8105 28.4434 48.6445 27.9258C48.4785 27.3984 48.3955 26.8076 48.3955 26.1533V15.8408C48.3955 15.4893 48.4346 15.1133 48.5127 14.7129C48.6006 14.3027 48.7324 13.9023 48.9082 13.5117C49.084 13.1113 49.3135 12.7305 49.5967 12.3691C49.8799 12.0078 50.2168 11.6904 50.6074 11.417C51.0078 11.1338 51.4668 10.9092 51.9844 10.7432C52.502 10.5771 53.0879 10.4941 53.7422 10.4941H67.4824V14.3027H53.7422C53.2441 14.3027 52.8633 14.4346 52.5996 14.6982C52.3359 14.9619 52.2041 15.3525 52.2041 15.8701V26.1533C52.2041 26.6416 52.3359 27.0225 52.5996 27.2959C52.873 27.5596 53.2539 27.6914 53.7422 27.6914H67.4824V31.5ZM84.4307 19.4736H75.8613C75.3438 19.4736 74.9531 19.6055 74.6895 19.8691C74.4258 20.123 74.2939 20.499 74.2939 20.9971V31.5H70.4854V20.9971C70.4854 20.3428 70.5684 19.7568 70.7344 19.2393C70.9004 18.7217 71.1201 18.2676 71.3936 17.877C71.6768 17.4766 71.999 17.1396 72.3604 16.8662C72.7217 16.583 73.0977 16.3535 73.4883 16.1777C73.8887 16.002 74.2891 15.875 74.6895 15.7969C75.0996 15.709 75.4805 15.665 75.832 15.665H84.4307V19.4736ZM102.067 26.2559C102.067 26.7832 101.975 27.3545 101.789 27.9697C101.604 28.5752 101.301 29.1416 100.881 29.6689C100.471 30.1865 99.9287 30.6211 99.2549 30.9727C98.5908 31.3242 97.7803 31.5 96.8232 31.5H89.9531C89.4258 31.5 88.8545 31.4072 88.2393 31.2217C87.6338 31.0361 87.0674 30.7383 86.54 30.3281C86.0225 29.9082 85.5879 29.3662 85.2363 28.7021C84.8848 28.0283 84.709 27.2129 84.709 26.2559C84.709 25.7285 84.8018 25.1572 84.9873 24.542C85.1729 23.9268 85.4707 23.3604 85.8809 22.8428C86.3008 22.3154 86.8428 21.876 87.5068 21.5244C88.1807 21.1729 88.9961 20.9971 89.9531 20.9971H96.8232V24.6299H89.9531C89.4355 24.6299 89.0352 24.791 88.752 25.1133C88.4688 25.4258 88.3271 25.8164 88.3271 26.2852C88.3271 26.7832 88.4883 27.1738 88.8105 27.457C89.1426 27.7305 89.5332 27.8672 89.9824 27.8672H96.8232C97.3408 27.8672 97.7412 27.7109 98.0244 27.3984C98.3076 27.0859 98.4492 26.6953 98.4492 26.2266V20.9092C98.4492 20.4111 98.293 20.0156 97.9805 19.7227C97.6777 19.4297 97.292 19.2832 96.8232 19.2832H88.459V15.665H96.8232C97.3506 15.665 97.917 15.7578 98.5225 15.9434C99.1377 16.1289 99.7041 16.4316 100.222 16.8516C100.749 17.2617 101.188 17.8037 101.54 18.4775C101.892 19.1416 102.067 19.9521 102.067 20.9092V26.2559ZM109.187 12.4131H105.378V8.9707H109.187V12.4131ZM109.187 31.5H105.378V15.665H109.187V31.5ZM130.397 31.5H126.589V22.7109C126.589 22.2129 126.501 21.7686 126.325 21.3779C126.159 20.9775 125.93 20.6357 125.637 20.3525C125.344 20.0693 124.997 19.8545 124.597 19.708C124.206 19.5518 123.781 19.4736 123.322 19.4736H116.657V31.5H112.849V17.5547C112.849 17.291 112.897 17.0469 112.995 16.8223C113.093 16.5879 113.229 16.3877 113.405 16.2217C113.581 16.0459 113.786 15.9092 114.021 15.8115C114.255 15.7139 114.504 15.665 114.768 15.665H123.352C123.83 15.665 124.333 15.7188 124.86 15.8262C125.397 15.9336 125.925 16.1094 126.442 16.3535C126.97 16.5879 127.468 16.8906 127.937 17.2617C128.415 17.623 128.835 18.0674 129.196 18.5947C129.567 19.1123 129.86 19.7129 130.075 20.3965C130.29 21.0801 130.397 21.8516 130.397 22.7109V31.5Z" fill="#7B57E0"/>
<path d="M155.183 10.4941L145.236 30.7529C145.08 31.0654 144.846 31.3145 144.533 31.5C144.23 31.6953 143.894 31.793 143.522 31.793C143.161 31.793 142.824 31.6953 142.512 31.5C142.209 31.3145 141.975 31.0654 141.809 30.7529L131.877 10.4941H136.14L143.522 25.626L150.935 10.4941H155.183ZM160.778 12.4131H156.97V8.9707H160.778V12.4131ZM160.778 31.5H156.97V15.665H160.778V31.5ZM179.748 26.1533C179.748 26.8076 179.665 27.3984 179.499 27.9258C179.333 28.4434 179.113 28.9023 178.84 29.3027C178.566 29.6934 178.249 30.0303 177.888 30.3135C177.526 30.5869 177.146 30.8115 176.745 30.9873C176.354 31.1631 175.954 31.2949 175.544 31.3828C175.144 31.4609 174.763 31.5 174.401 31.5H164.089V27.6914H174.372C174.89 27.6914 175.28 27.5596 175.544 27.2959C175.808 27.0322 175.939 26.6514 175.939 26.1533C175.891 25.1377 175.378 24.6299 174.401 24.6299H168.498C167.658 24.6299 166.945 24.4834 166.359 24.1904C165.773 23.8975 165.295 23.5312 164.924 23.0918C164.562 22.6523 164.299 22.1787 164.133 21.6709C163.977 21.1631 163.898 20.6895 163.898 20.25C163.898 19.4004 164.05 18.6875 164.353 18.1113C164.655 17.5254 165.036 17.0518 165.495 16.6904C165.954 16.3291 166.452 16.0703 166.989 15.9141C167.526 15.748 168.029 15.665 168.498 15.665H177.858V19.4736H168.527C168.332 19.4736 168.176 19.498 168.059 19.5469C167.951 19.5859 167.868 19.6445 167.81 19.7227C167.761 19.791 167.731 19.8691 167.722 19.957C167.712 20.0352 167.707 20.1133 167.707 20.1914C167.717 20.3477 167.746 20.4697 167.795 20.5576C167.844 20.6455 167.902 20.709 167.971 20.748C168.049 20.7871 168.132 20.8115 168.22 20.8213C168.317 20.8213 168.41 20.8213 168.498 20.8213H174.401C175.378 20.8213 176.208 20.9971 176.892 21.3486C177.575 21.7002 178.127 22.1445 178.547 22.6816C178.967 23.209 179.27 23.7852 179.455 24.4102C179.65 25.0352 179.748 25.6162 179.748 26.1533ZM186.296 12.4131H182.487V8.9707H186.296V12.4131ZM186.296 31.5H182.487V15.665H186.296V31.5ZM207.185 26.1533C207.185 26.8076 207.102 27.3984 206.936 27.9258C206.77 28.4434 206.55 28.9023 206.276 29.3027C206.003 29.6934 205.686 30.0303 205.324 30.3135C204.963 30.5869 204.582 30.8115 204.182 30.9873C203.791 31.1631 203.391 31.2949 202.98 31.3828C202.58 31.4609 202.199 31.5 201.838 31.5H194.968C194.44 31.5 193.864 31.4072 193.239 31.2217C192.614 31.0361 192.033 30.7334 191.496 30.3135C190.969 29.8838 190.524 29.332 190.163 28.6582C189.812 27.9746 189.636 27.1396 189.636 26.1533V20.9971C189.636 20.0205 189.812 19.1953 190.163 18.5215C190.524 17.8379 190.969 17.2861 191.496 16.8662C192.033 16.4365 192.614 16.1289 193.239 15.9434C193.864 15.7578 194.44 15.665 194.968 15.665H201.838C202.814 15.665 203.645 15.8408 204.328 16.1924C205.012 16.5439 205.563 16.9883 205.983 17.5254C206.403 18.0527 206.706 18.6289 206.892 19.2539C207.087 19.8789 207.185 20.46 207.185 20.9971V26.1533ZM203.376 21.0264C203.376 20.499 203.244 20.1084 202.98 19.8545C202.717 19.6006 202.336 19.4736 201.838 19.4736H194.997C194.489 19.4736 194.104 19.6055 193.84 19.8691C193.576 20.123 193.444 20.499 193.444 20.9971V26.1533C193.444 26.6514 193.576 27.0322 193.84 27.2959C194.104 27.5596 194.489 27.6914 194.997 27.6914H201.838C202.355 27.6914 202.741 27.5596 202.995 27.2959C203.249 27.0322 203.376 26.6514 203.376 26.1533V21.0264ZM227.985 31.5H224.177V22.7109C224.177 22.2129 224.089 21.7686 223.913 21.3779C223.747 20.9775 223.518 20.6357 223.225 20.3525C222.932 20.0693 222.585 19.8545 222.185 19.708C221.794 19.5518 221.369 19.4736 220.91 19.4736H214.245V31.5H210.437V17.5547C210.437 17.291 210.485 17.0469 210.583 16.8223C210.681 16.5879 210.817 16.3877 210.993 16.2217C211.169 16.0459 211.374 15.9092 211.608 15.8115C211.843 15.7139 212.092 15.665 212.355 15.665H220.939C221.418 15.665 221.921 15.7188 222.448 15.8262C222.985 15.9336 223.513 16.1094 224.03 16.3535C224.558 16.5879 225.056 16.8906 225.524 17.2617C226.003 17.623 226.423 18.0674 226.784 18.5947C227.155 19.1123 227.448 19.7129 227.663 20.3965C227.878 21.0801 227.985 21.8516 227.985 22.7109V31.5Z" fill="black"/>
<defs>
<clipPath id="clip0_7_157">
<rect width="36" height="41" fill="white"/>
</clipPath>
</defs>
</svg>
