<svg width="16" height="17" viewBox="0 0 16 17" fill="none" xmlns="http://www.w3.org/2000/svg">
<path d="M10.3787 2.94336C10.2105 2.94334 10.0466 2.94332 9.90785 2.95466C9.75546 2.96711 9.57563 2.99649 9.39468 3.08869C9.1438 3.21652 8.93983 3.42049 8.81199 3.67138C8.7198 3.85232 8.69042 4.03215 8.67797 4.18454C8.66663 4.32332 8.66665 4.48718 8.66667 4.65543V6.56463C8.66665 6.73288 8.66663 6.89674 8.67797 7.03552C8.69042 7.18791 8.7198 7.36773 8.81199 7.54868C8.93983 7.79957 9.1438 8.00354 9.39468 8.13137C9.57563 8.22357 9.75546 8.25295 9.90785 8.2654C10.0466 8.27674 10.2105 8.27672 10.3787 8.2767H12.2879C12.4562 8.27672 12.6201 8.27674 12.7588 8.2654C12.9112 8.25295 13.091 8.22357 13.272 8.13137C13.5229 8.00354 13.7268 7.79957 13.8547 7.54868C13.9469 7.36773 13.9763 7.18791 13.9887 7.03552C14 6.89674 14 6.73288 14 6.56463V4.65543C14 4.48718 14 4.32332 13.9887 4.18454C13.9763 4.03215 13.9469 3.85232 13.8547 3.67138C13.7268 3.42049 13.5229 3.21652 13.272 3.08869C13.091 2.99649 12.9112 2.96711 12.7588 2.95466C12.6201 2.94332 12.4562 2.94334 12.2879 2.94336L10.3787 2.94336Z" fill="#7B57E0"/>
<path d="M3.71207 9.61003C3.54382 9.61001 3.37996 9.60999 3.24118 9.62133C3.08879 9.63378 2.90897 9.66316 2.72802 9.75535C2.47713 9.88319 2.27316 10.0872 2.14533 10.338C2.05313 10.519 2.02375 10.6988 2.0113 10.8512C1.99996 10.99 1.99998 11.1538 2 11.3221L2 13.2313C1.99998 13.3995 1.99996 13.5634 2.0113 13.7022C2.02375 13.8546 2.05313 14.0344 2.14533 14.2154C2.27316 14.4662 2.47713 14.6702 2.72802 14.798C2.90897 14.8902 3.08879 14.9196 3.24118 14.9321C3.37996 14.9434 3.54382 14.9434 3.71207 14.9434H5.62127C5.78952 14.9434 5.95338 14.9434 6.09216 14.9321C6.24455 14.9196 6.42438 14.8902 6.60532 14.798C6.85621 14.6702 7.06018 14.4662 7.18801 14.2154C7.28021 14.0344 7.30959 13.8546 7.32204 13.7022C7.33338 13.5634 7.33336 13.3996 7.33334 13.2313V11.3221C7.33336 11.1539 7.33338 10.99 7.32204 10.8512C7.30959 10.6988 7.28021 10.519 7.18801 10.338C7.06018 10.0872 6.85621 9.88319 6.60532 9.75535C6.42438 9.66316 6.24455 9.63378 6.09216 9.62133C5.95338 9.60999 5.78952 9.61001 5.62127 9.61003H3.71207Z" fill="#7B57E0"/>
<path d="M10.3787 9.61003C10.2105 9.61001 10.0466 9.60999 9.90785 9.62133C9.75546 9.63378 9.57563 9.66316 9.39468 9.75535C9.1438 9.88319 8.93983 10.0872 8.81199 10.338C8.7198 10.519 8.69042 10.6988 8.67797 10.8512C8.66663 10.99 8.66665 11.1538 8.66667 11.3221V13.2313C8.66665 13.3995 8.66663 13.5634 8.67797 13.7022C8.69042 13.8546 8.7198 14.0344 8.81199 14.2154C8.93983 14.4662 9.1438 14.6702 9.39468 14.798C9.57563 14.8902 9.75546 14.9196 9.90785 14.9321C10.0466 14.9434 10.2105 14.9434 10.3787 14.9434H12.2879C12.4562 14.9434 12.6201 14.9434 12.7588 14.9321C12.9112 14.9196 13.091 14.8902 13.272 14.798C13.5229 14.6702 13.7268 14.4662 13.8547 14.2154C13.9469 14.0344 13.9763 13.8546 13.9887 13.7022C14 13.5634 14 13.3996 14 13.2313V11.3221C14 11.1538 14 10.99 13.9887 10.8512C13.9763 10.6988 13.9469 10.519 13.8547 10.338C13.7268 10.0872 13.5229 9.88319 13.272 9.75535C13.091 9.66316 12.9112 9.63378 12.7588 9.62133C12.6201 9.60999 12.4562 9.61001 12.2879 9.61003H10.3787Z" fill="#7B57E0"/>
<path d="M3.71207 2.94336C3.54382 2.94334 3.37995 2.94332 3.24118 2.95466C3.08879 2.96711 2.90897 2.99649 2.72802 3.08869C2.47713 3.21652 2.27316 3.42049 2.14533 3.67138C2.05313 3.85232 2.02375 4.03215 2.0113 4.18454C1.99996 4.32331 1.99998 4.48717 2 4.65542L2 6.56463C1.99998 6.73288 1.99996 6.89675 2.0113 7.03552C2.02375 7.18791 2.05313 7.36773 2.14533 7.54868C2.27316 7.79957 2.47713 8.00354 2.72802 8.13137C2.90897 8.22357 3.08879 8.25295 3.24118 8.2654C3.37995 8.27674 3.5438 8.27672 3.71205 8.2767H5.62127C5.78952 8.27672 5.95339 8.27674 6.09216 8.2654C6.24455 8.25295 6.42437 8.22357 6.60532 8.13137C6.85621 8.00354 7.06018 7.79957 7.18801 7.54868C7.28021 7.36773 7.30959 7.18791 7.32204 7.03552C7.33338 6.89675 7.33336 6.7329 7.33334 6.56465V4.65543C7.33336 4.48718 7.33338 4.32331 7.32204 4.18454C7.30959 4.03215 7.28021 3.85232 7.18801 3.67138C7.06018 3.42049 6.85621 3.21652 6.60532 3.08869C6.42437 2.99649 6.24455 2.96711 6.09216 2.95466C5.95339 2.94332 5.78953 2.94334 5.62128 2.94336L3.71207 2.94336Z" fill="#7B57E0"/>
</svg>
