<svg width="60" height="61" viewBox="0 0 60 61" fill="none" xmlns="http://www.w3.org/2000/svg">
<rect y="0.279785" width="60" height="60" rx="30" fill="#DBEAFE"/>
<ellipse cx="26.6667" cy="39.4466" rx="11.6667" ry="5.83333" stroke="#2563EB" stroke-width="2" stroke-linejoin="round"/>
<circle cx="26.6667" cy="21.9465" r="6.66667" stroke="#2563EB" stroke-width="2" stroke-linejoin="round"/>
<path d="M35.8207 17.9219C38.6075 18.3202 40.7504 20.7163 40.7504 23.6133C40.7501 26.7886 38.1757 29.3631 35.0004 29.3633C34.5048 29.3633 34.0236 29.2995 33.5648 29.1816C33.992 28.7742 34.3839 28.3305 34.7338 27.8535C34.8218 27.859 34.9109 27.8633 35.0004 27.8633C37.3472 27.8631 39.2501 25.9602 39.2504 23.6133C39.2504 21.7512 38.0521 20.1693 36.3851 19.5947C36.2455 19.0157 36.0561 18.4567 35.8207 17.9219Z" fill="#2563EB"/>
<path d="M37.2816 32.9702C39.2181 33.1524 40.9678 33.5621 42.3597 34.1421C43.3186 34.5417 44.1439 35.0367 44.7406 35.6245C45.3398 36.215 45.7504 36.9444 45.7504 37.7808C45.7501 38.617 45.3398 39.3467 44.7406 39.937C44.1439 40.5247 43.3185 41.0199 42.3597 41.4194C41.9798 41.5777 41.5727 41.7222 41.1429 41.854C41.3947 41.2873 41.5592 40.699 41.6283 40.0942C41.6799 40.0737 41.7322 40.0557 41.7826 40.0347C42.6331 39.6803 43.2726 39.2767 43.6879 38.8677C44.1001 38.4615 44.2501 38.0946 44.2504 37.7808C44.2504 37.4668 44.1002 37.0992 43.6879 36.6929C43.2727 36.2839 42.6328 35.8812 41.7826 35.5269C41.1595 35.2673 40.442 35.0406 39.6508 34.8589C38.9953 34.1679 38.199 33.5317 37.2816 32.9702Z" fill="#2563EB"/>
</svg>
