<svg width="60" height="61" viewBox="0 0 60 61" fill="none" xmlns="http://www.w3.org/2000/svg">
<rect y="0.279785" width="60" height="60" rx="30" fill="#F4F0FF"/>
<g clip-path="url(#clip0_10_2816)">
<path d="M18.2759 34.8774C17.0763 34.8774 16.1004 35.8533 16.1004 37.0529C16.1004 38.2525 17.0763 39.2284 18.2759 39.2284C19.4755 39.2284 20.4514 38.2525 20.4514 37.0529C20.4514 35.8534 19.4755 34.8774 18.2759 34.8774ZM18.2759 37.9252C17.7949 37.9252 17.4036 37.5338 17.4036 37.0529C17.4036 36.572 17.7949 36.1807 18.2759 36.1807C18.7569 36.1807 19.1481 36.5719 19.1481 37.0529C19.1481 37.5339 18.7569 37.9252 18.2759 37.9252Z" fill="#421C83"/>
<path d="M41.0186 34.8774C39.819 34.8774 38.843 35.8533 38.843 37.0529C38.843 38.2525 39.819 39.2284 41.0186 39.2284C42.2181 39.2284 43.194 38.2525 43.194 37.0529C43.194 35.8534 42.2181 34.8774 41.0186 34.8774ZM41.0186 37.9252C40.5376 37.9252 40.1463 37.5338 40.1463 37.0529C40.1463 36.572 40.5376 36.1807 41.0186 36.1807C41.4995 36.1807 41.8908 36.5719 41.8908 37.0529C41.8908 37.5339 41.4995 37.9252 41.0186 37.9252Z" fill="#421C83"/>
<path d="M45.5553 27.3456L39.7413 26.6814L36.6383 21.6373C35.6908 20.097 33.9788 19.1401 32.1704 19.1401H21.6143C18.5799 19.1401 15.898 21.1835 15.0925 24.1093L15.0102 24.4086C14.6099 25.8624 13.4597 27.0196 12.0084 27.4289C10.8259 27.7623 10 28.8532 10 30.0819V37.2943C10 37.6542 10.2918 37.9459 10.6516 37.9459H14.0016C14.4149 39.9267 16.1742 41.4194 18.2759 41.4194C20.3775 41.4194 22.1368 39.9267 22.5501 37.9459H36.7444C37.1577 39.9267 38.917 41.4194 41.0186 41.4194C43.1203 41.4194 44.8796 39.9267 45.2929 37.9459H48.8097C49.141 37.9459 49.4196 37.6973 49.4571 37.3681L49.9675 32.8951C50.2806 30.1493 48.3014 27.6598 45.5553 27.3456ZM11.3033 35.8509H14.0791C14.0059 36.1061 13.9549 36.3707 13.9293 36.6427H11.3033V35.8509ZM18.2759 40.1161C16.5868 40.1161 15.2128 38.742 15.2128 37.053C15.2128 35.364 16.5868 33.9898 18.2759 33.9898C19.9649 33.9898 21.339 35.364 21.339 37.053C21.339 38.742 19.9649 40.1161 18.2759 40.1161ZM41.0186 40.1161C39.3296 40.1161 37.9555 38.742 37.9555 37.053C37.9555 35.364 39.3296 33.9898 41.0186 33.9898C42.7077 33.9898 44.0817 35.364 44.0817 37.053C44.0817 38.742 42.7077 40.1161 41.0186 40.1161ZM41.0186 32.6866C39.5427 32.6866 38.2365 33.4233 37.4458 34.5476H25.8498C25.4899 34.5476 25.1982 34.8394 25.1982 35.1993C25.1982 35.5591 25.4899 35.8509 25.8498 35.8509H36.8219C36.7486 36.1061 36.6976 36.3707 36.6721 36.6427H22.6224C22.4149 34.4268 20.5451 32.6866 18.2759 32.6866C16.8 32.6866 15.4938 33.4233 14.703 34.5476H11.3033V30.0819C11.3033 29.4342 11.7387 28.859 12.3621 28.6832C14.2499 28.151 15.746 26.6456 16.2667 24.7545L16.349 24.4552C16.9993 22.0932 19.1645 20.4434 21.6143 20.4434H32.1704C33.5295 20.4434 34.8162 21.1625 35.5282 22.3201L38.7973 27.6343C38.9021 27.8047 39.0795 27.9175 39.2783 27.9403L45.4072 28.6405C46.7975 28.7996 47.9219 29.7122 48.4195 30.9234H46.3853C46.0254 30.9234 45.7336 31.2152 45.7336 31.5751C45.7336 31.9349 46.0254 32.2267 46.3853 32.2267H48.6945C48.699 32.3983 48.6925 32.5721 48.6725 32.7474L48.4671 34.5476H44.5914C43.8007 33.4233 42.4944 32.6866 41.0186 32.6866ZM45.3651 36.6427C45.3396 36.3707 45.2885 36.1061 45.2153 35.8509H48.3184L48.2281 36.6427H45.3651Z" fill="#421C83"/>
<path d="M32.2045 28.979H30.8352C30.4753 28.979 30.1836 29.2708 30.1836 29.6306C30.1836 29.9905 30.4753 30.2823 30.8352 30.2823H32.2045C32.5644 30.2823 32.8561 29.9905 32.8561 29.6306C32.8561 29.2708 32.5645 28.979 32.2045 28.979Z" fill="#421C83"/>
<path d="M23.4536 29.6306C23.4536 29.2708 23.1619 28.979 22.802 28.979H21.4327C21.0728 28.979 20.7811 29.2708 20.7811 29.6306C20.7811 29.9905 21.0728 30.2823 21.4327 30.2823H22.802C23.1619 30.2823 23.4536 29.9905 23.4536 29.6306Z" fill="#421C83"/>
<path d="M24.2608 34.9497C24.1466 34.6792 23.8561 34.5093 23.5635 34.5547C23.2986 34.5959 23.0838 34.7952 23.0237 35.0565C22.8938 35.6222 23.5495 36.0613 24.0264 35.7368C24.2788 35.5651 24.3772 35.2316 24.2608 34.9497C24.2773 34.9896 24.2443 34.9106 24.2608 34.9497Z" fill="#421C83"/>
<path d="M34.85 22.7381C34.2826 21.8139 33.2559 21.2397 32.1705 21.2397H21.614C19.5213 21.2397 17.672 22.6487 17.1168 24.6667L17.0349 24.9654C16.8205 25.7436 16.4903 27.0802 16.4763 27.1367C16.4283 27.3312 16.4724 27.5369 16.5959 27.6947C16.7194 27.8524 16.9086 27.9446 17.1089 27.9446H36.8872C37.1233 27.9446 37.3409 27.817 37.456 27.6109C37.5712 27.4048 37.5659 27.1525 37.4422 26.9515L34.85 22.7381ZM27.3205 22.5429V26.6411H21.3208V22.556C21.4177 22.5475 21.5154 22.5429 21.614 22.5429H27.3205ZM18.2915 25.3108L18.3735 25.0118C18.622 24.1087 19.2306 23.375 20.0176 22.9486V26.6411H17.944C18.0539 26.2073 18.1881 25.6862 18.2915 25.3108ZM28.6238 26.6411V22.5429H32.1705C32.8061 22.5429 33.4072 22.879 33.7397 23.4204L35.7213 26.6411H28.6238Z" fill="#421C83"/>
</g>
<defs>
<clipPath id="clip0_10_2816">
<rect width="40" height="40" fill="white" transform="translate(10 10.2798)"/>
</clipPath>
</defs>
</svg>
