<svg width="60" height="61" viewBox="0 0 60 61" fill="none" xmlns="http://www.w3.org/2000/svg">
<rect y="0.279785" width="60" height="60" rx="30" fill="#FEE2E2"/>
<path d="M37.2328 15.4416C35.4714 15.7619 33.8167 16.5091 32.9627 17.3632L32.589 17.7101L34.2437 19.3648L35.8984 21.0195L38.7007 18.2172C40.5956 16.349 41.4496 15.3882 41.3428 15.3348C41.1293 15.2281 38.2203 15.2815 37.2328 15.4416Z" fill="#DC2626"/>
<path d="M41.0493 21.0727L37.9268 24.1953L34.9911 21.2329L32.0286 18.2705L31.7351 18.6174C30.9611 19.4981 30.8544 21.9001 31.4682 24.0352C31.6283 24.6223 31.7884 25.1561 31.7884 25.2094C31.7884 25.2628 29.1196 27.7182 25.8903 30.6272C14.6278 40.7688 15.0014 40.3951 15.0014 41.7029C15.0014 43.3576 16.8696 45.2791 18.4442 45.2791C19.6185 45.2791 19.6452 45.2791 27.4382 36.3118L34.6708 28.0117L37.4464 28.0918L40.222 28.1719L40.8358 27.4513C42.3837 25.6898 43.4513 23.8216 43.9584 22.0068C44.2519 20.966 44.4121 18.9644 44.2519 18.3505L44.1452 17.9502L41.0493 21.0727ZM20.179 39.381C20.7661 39.7012 21.1131 40.3151 21.1131 41.009C21.1131 41.8363 20.8195 42.4235 20.179 42.7704C18.4442 43.7846 16.496 41.9964 17.35 40.1816C17.8304 39.1141 19.1115 38.7671 20.179 39.381Z" fill="#DC2626"/>
</svg>
