<svg width="60" height="61" viewBox="0 0 60 61" fill="none" xmlns="http://www.w3.org/2000/svg">
<rect y="0.279785" width="60" height="60" rx="30" fill="#F1F5F9"/>
<path d="M33.3333 41.9465V21.9465M33.3333 41.9465H36.6666M33.3333 41.9465H25M33.3333 21.9465C33.3333 18.2646 30.3485 15.2798 26.6666 15.2798H20C16.3181 15.2798 13.3333 18.2646 13.3333 21.9465V35.2798C13.3333 38.3885 15.4611 41.0002 18.3397 41.7381M33.3333 21.9465H38.6818C39.5287 21.9465 40.3438 22.2688 40.9616 22.848L45.6131 27.2088C46.2853 27.8389 46.6666 28.7192 46.6666 29.6406V38.6131C46.6666 40.4541 45.1743 41.9465 43.3333 41.9465M43.3333 41.9465C43.3333 43.7874 41.8409 45.2798 40 45.2798C38.159 45.2798 36.6666 43.7874 36.6666 41.9465M43.3333 41.9465C43.3333 40.1055 41.8409 38.6131 40 38.6131C38.159 38.6131 36.6666 40.1055 36.6666 41.9465M25 41.9465C25 43.7874 23.5076 45.2798 21.6666 45.2798C19.8257 45.2798 18.3333 43.7874 18.3333 41.9465C18.3333 41.8765 18.3355 41.807 18.3397 41.7381M25 41.9465C25 40.1055 23.5076 38.6131 21.6666 38.6131C19.8957 38.6131 18.4473 39.9942 18.3397 41.7381" stroke="#475569" stroke-width="2"/>
<path d="M26.6666 23.6133H23.3333" stroke="#475569" stroke-width="2" stroke-linecap="round" stroke-linejoin="round"/>
<path d="M26.6667 30.2798H20" stroke="#475569" stroke-width="2" stroke-linecap="round" stroke-linejoin="round"/>
</svg>
