<svg width="34" height="25" viewBox="0 0 34 25" fill="none" xmlns="http://www.w3.org/2000/svg">
<ellipse cx="17.3355" cy="19.3013" rx="9.54848" ry="3.97853" stroke="#7B57E0" stroke-width="2" stroke-linejoin="round"/>
<circle cx="17.3355" cy="5.77424" r="4.77424" stroke="#7B57E0" stroke-width="2" stroke-linejoin="round"/>
<path d="M7.66876 14.6436C6.84179 15.1859 6.15549 15.7969 5.64435 16.4619C5.04575 16.5968 4.50336 16.7633 4.03107 16.9521C3.36341 17.2192 2.87312 17.5186 2.56232 17.8125C2.2534 18.1047 2.17176 18.3391 2.17169 18.5059C2.17179 18.6726 2.25329 18.9079 2.56232 19.2002C2.87314 19.494 3.36368 19.7936 4.03107 20.0605C4.24911 20.1477 4.48269 20.2282 4.72931 20.3047C4.88329 20.9222 5.17623 21.5147 5.59161 22.0713C4.81336 21.9112 4.09924 21.7034 3.47345 21.4531C2.70159 21.1444 2.02644 20.7574 1.53204 20.29C1.03604 19.821 0.671797 19.2179 0.671692 18.5059C0.671763 17.7938 1.03602 17.1918 1.53204 16.7227C2.02645 16.2551 2.70136 15.8684 3.47345 15.5596C4.62349 15.0996 6.0709 14.7782 7.66876 14.6436Z" fill="#7B57E0"/>
<path d="M27.002 14.6436C28.6 14.7782 30.0481 15.0995 31.1982 15.5596C31.9701 15.8684 32.6453 16.2552 33.1396 16.7227C33.6355 17.1917 33.9999 17.794 34 18.5059C33.9999 19.2178 33.6356 19.821 33.1396 20.29C32.6453 20.7575 31.9702 21.1443 31.1982 21.4531C30.5721 21.7036 29.857 21.9112 29.0781 22.0713C29.4937 21.5146 29.7874 20.9224 29.9414 20.3047C30.1882 20.2282 30.4224 20.1478 30.6406 20.0605C31.3081 19.7935 31.7986 19.4941 32.1094 19.2002C32.4183 18.908 32.4999 18.6726 32.5 18.5059C32.4999 18.3392 32.418 18.1046 32.1094 17.8125C31.7986 17.5186 31.3081 17.2192 30.6406 16.9521C30.168 16.7631 29.6245 16.5969 29.0254 16.4619C28.5143 15.7971 27.8287 15.1858 27.002 14.6436Z" fill="#7B57E0"/>
<path d="M25.2922 3.43311C27.4642 3.43311 29.2247 5.19378 29.2249 7.36572C29.2248 9.53773 27.4643 11.2983 25.2922 11.2983C24.6324 11.2983 24.0112 11.1344 23.4651 10.8472C23.7872 10.4584 24.0723 10.0382 24.3167 9.59229C24.6155 9.72344 24.9449 9.79829 25.2922 9.79834C26.6358 9.79834 27.7248 8.70931 27.7249 7.36572C27.7247 6.02221 26.6358 4.93311 25.2922 4.93311C25.2772 4.93311 25.2623 4.93479 25.2473 4.93506C25.1937 4.4236 25.0924 3.92667 24.9465 3.44873C25.0605 3.4388 25.1757 3.43312 25.2922 3.43311Z" fill="#7B57E0"/>
<path d="M9.37854 3.43311C9.49472 3.43312 9.60965 3.43885 9.72327 3.44873C9.57747 3.9266 9.47607 4.42368 9.42249 4.93506C9.40786 4.9348 9.39323 4.93311 9.37854 4.93311C8.03509 4.93322 6.94604 6.02228 6.94592 7.36572C6.94596 8.70924 8.03505 9.79823 9.37854 9.79834C9.72553 9.79829 10.0545 9.72322 10.3531 9.59229C10.5976 10.0383 10.8835 10.4583 11.2057 10.8472C10.6596 11.1344 10.0384 11.2983 9.37854 11.2983C7.20662 11.2982 5.44596 9.53766 5.44592 7.36572C5.44604 5.19385 7.20667 3.43322 9.37854 3.43311Z" fill="#7B57E0"/>
</svg>
