<svg width="23" height="23" viewBox="0 0 23 23" fill="none" xmlns="http://www.w3.org/2000/svg">
<path d="M17.0735 0.120531C15.7653 0.358378 14.5364 0.913355 13.9022 1.54761L13.6247 1.80528L14.8536 3.03416L16.0824 4.26304L18.1636 2.18187C19.5709 0.79443 20.2051 0.0808881 20.1259 0.0412469C19.9673 -0.0380355 17.8068 0.00160748 17.0735 0.120531Z" fill="#7B57E0"/>
<path d="M1.07827 0.853828C0.820597 1.13132 0.622391 1.40881 0.622391 1.44845C0.622391 1.48809 1.23683 2.30073 1.97019 3.25212L3.31799 4.97651L4.01171 5.23418C4.68562 5.49185 4.72526 5.53149 6.94516 7.7514L9.20471 10.0109L9.72005 9.51543C10.0174 9.23794 10.275 9.0001 10.2948 8.98027C10.3147 8.98027 9.284 7.90996 7.99566 6.6018C5.67665 4.28279 5.65683 4.24315 5.45862 3.64853L5.26041 3.03409L3.5162 1.74576C2.56481 1.05203 1.73235 0.437596 1.65306 0.417776C1.5936 0.358314 1.35575 0.556519 1.07827 0.853828Z" fill="#7B57E0"/>
<path d="M19.9078 4.3029L17.5888 6.62191L15.4086 4.42182L13.2085 2.22173L12.9905 2.4794C12.4157 3.13348 12.3364 4.91734 12.7922 6.50298C12.9112 6.93904 13.0301 7.33545 13.0301 7.37509C13.0301 7.41473 11.048 9.23823 8.64974 11.3987C0.285443 18.9305 0.562933 18.653 0.562933 19.6242C0.562933 20.8531 1.95037 22.2802 3.11979 22.2802C3.9919 22.2802 4.01172 22.2802 9.79933 15.6205L15.1707 9.45625L17.2321 9.51572L19.2934 9.57518L19.7493 9.04002C20.8989 7.73186 21.6917 6.34442 22.0683 4.99662C22.2863 4.22361 22.4052 2.73707 22.2863 2.2812L22.207 1.98389L19.9078 4.3029ZM4.40813 17.8998C4.84418 18.1377 5.10185 18.5935 5.10185 19.1089C5.10185 19.7233 4.88382 20.1594 4.40813 20.417C3.11979 21.1702 1.67288 19.8423 2.30714 18.4944C2.66391 17.7016 3.61531 17.444 4.40813 17.8998Z" fill="#7B57E0"/>
<path d="M13.5653 12.3498C13.3076 12.6669 12.8715 13.1624 12.594 13.4796L12.1183 14.0345L15.1707 17.3644C16.8555 19.2077 18.2627 20.7141 18.3024 20.7339C18.3817 20.7537 21.0574 18.0383 21.0574 17.9392C21.0574 17.8599 14.259 11.8543 14.1401 11.8146C14.1004 11.7948 13.8427 12.0327 13.5653 12.3498Z" fill="#7B57E0"/>
<path d="M19.9277 19.5447C18.897 20.5753 18.5799 20.9321 18.6591 21.0114C18.7186 21.0709 19.0754 21.2889 19.4322 21.5069L20.106 21.9033L21.216 20.7934C22.2467 19.7627 22.326 19.6636 22.207 19.4852C22.1476 19.3861 21.9295 19.0492 21.7313 18.732C21.5331 18.4149 21.3547 18.1572 21.3349 18.1572C21.3151 18.177 20.6808 18.7915 19.9277 19.5447Z" fill="#7B57E0"/>
</svg>
