<svg width="60" height="61" viewBox="0 0 60 61" fill="none" xmlns="http://www.w3.org/2000/svg">
<rect y="0.279785" width="60" height="60" rx="30" fill="#FEF3C7"/>
<rect x="20" y="13.6133" width="20" height="20" rx="2" stroke="#D97706" stroke-width="2"/>
<path d="M31.6667 18.6133L28.3333 18.6133" stroke="#D97706" stroke-width="1.5" stroke-linecap="round" stroke-linejoin="round"/>
<path d="M19.0568 36.6607L16.4736 34.139C16.1288 33.8024 15.6612 33.6133 15.1736 33.6133C13.8899 33.6133 13.0013 34.8649 13.4521 36.0383L15.9807 42.6208C16.9802 45.2228 19.5284 46.9466 22.3751 46.9466H44.2522C45.5857 46.9466 46.6667 45.8913 46.6667 44.5896C46.6667 43.9645 46.4123 43.365 45.9595 42.9229L43.545 40.5659C42.2643 39.3157 40.5272 38.6133 38.716 38.6133H23.8858C22.0746 38.6133 20.3376 37.9109 19.0568 36.6607Z" stroke="#D97706" stroke-width="2"/>
</svg>
